<svg xmlns="http://www.w3.org/2000/svg" viewBox="0 0 1200 800" role="img" aria-hidden="true">
  <defs>
    <linearGradient id="bg" x1="0" y1="0" x2="0" y2="1">
      <stop offset="0" stop-color="#191713"/>
      <stop offset="1" stop-color="#0d0c0a"/>
    </linearGradient>
    <radialGradient id="glow" cx="0.5" cy="0.36" r="0.62">
      <stop offset="0" stop-color="#ffffff" stop-opacity="0.055"/>
      <stop offset="1" stop-color="#ffffff" stop-opacity="0"/>
    </radialGradient>
    <radialGradient id="shadow" cx="0.5" cy="0.5" r="0.5">
      <stop offset="0" stop-color="#000000" stop-opacity="0.6"/>
      <stop offset="1" stop-color="#000000" stop-opacity="0"/>
    </radialGradient>
  </defs>
  <rect width="1200" height="800" fill="url(#bg)"/>
  <rect width="1200" height="800" fill="url(#glow)"/>
  <ellipse cx="600" cy="590" rx="210" ry="30" fill="url(#shadow)"/>
  <g fill="none" stroke="#e8e5df" stroke-opacity="0.78" stroke-width="5" stroke-linecap="round" stroke-linejoin="round">
    <path d="M600,545 C474,545 464,296 600,296 C736,296 726,545 600,545"/>
    <path d="M600,545 C536,545 532,398 600,398 C668,398 664,545 600,545"/>
  </g>
  <g fill="none" stroke="#a88f68" stroke-opacity="0.6" stroke-width="4" stroke-linecap="round">
    <path d="M600,330 C582,330 570,340 570,352 C570,364 582,374 600,374"/>
  </g>
</svg>
